<?xml version="1.0" standalone="no"?>
<!DOCTYPE svg PUBLIC "-//W3C//DTD SVG 20010904//EN"
 "http://www.w3.org/TR/2001/REC-SVG-20010904/DTD/svg10.dtd">
<svg version="1.0" xmlns="http://www.w3.org/2000/svg"
 width="1920.000000pt" height="1080.000000pt" viewBox="0 0 1920.000000 1080.000000"
 preserveAspectRatio="xMidYMid meet">

<g transform="translate(0.000000,1080.000000) scale(0.100000,-0.100000)"
fill="none" stroke="#000000">
<path stroke-width="1" d="M1005 9868 c-3 -7 -65 -188 -139 -401 -74 -214 -141 -395 -147 -404
-19 -22 -65 -43 -94 -43 -20 0 -25 -5 -25 -25 l0 -25 141 0 c139 0 140 0 137
22 -2 15 -13 24 -35 30 -18 5 -40 19 -48 32 -14 21 -13 30 17 115 l32 91 154
-2 155 -3 34 -100 c40 -113 37 -127 -23 -135 -31 -4 -40 -10 -42 -27 l-3 -23
175 0 c166 0 176 1 176 19 0 15 -10 20 -50 26 -36 5 -55 13 -65 28 -8 12 -74
198 -148 412 -75 215 -138 398 -142 408 -8 20 -53 23 -60 5z m64 -371 c33 -98
61 -183 61 -188 0 -5 -59 -9 -136 -9 -105 0 -135 3 -132 13 3 6 33 94 68 195
35 101 66 179 70 175 4 -4 35 -88 69 -186z"/>
<path stroke-width="1" d="M3660 9856 c-142 -38 -262 -153 -310 -296 -25 -73 -29 -207 -10 -280
30 -115 131 -240 236 -293 104 -53 234 -59 334 -16 56 24 127 95 160 159 28
56 40 160 18 160 -16 0 -28 -28 -28 -65 0 -33 -45 -118 -81 -154 -19 -19 -58
-45 -87 -59 -101 -46 -237 -17 -322 68 -80 80 -121 239 -102 395 21 167 73
256 181 312 52 28 74 33 130 33 134 0 224 -85 270 -253 11 -42 22 -63 34 -65
16 -3 17 11 17 182 0 211 -5 222 -60 136 -18 -27 -34 -50 -37 -50 -3 0 -20 13
-38 29 -72 63 -198 86 -305 57z"/>
<path stroke-width="1" d="M8922 9855 c-98 -27 -200 -105 -257 -196 -94 -147 -92 -374 4 -513
41 -59 120 -130 177 -159 133 -67 317 -56 400 24 l31 30 35 -35 c20 -20 41
-36 47 -36 7 0 11 41 11 124 0 151 7 173 55 182 25 4 35 11 35 25 0 18 -10 19
-180 19 -169 0 -180 -1 -180 -19 0 -16 11 -19 70 -25 l70 -7 11 -40 c19 -61
-1 -156 -40 -191 -63 -56 -181 -65 -276 -19 -115 55 -166 130 -193 284 -27
153 8 326 83 415 53 61 142 102 224 102 134 0 227 -88 271 -255 10 -41 21 -61
33 -63 16 -3 17 12 17 182 0 211 -5 222 -60 136 -18 -27 -34 -50 -37 -50 -3 0
-19 11 -35 25 -82 69 -203 92 -316 60z"/>
<path stroke-width="1" d="M1980 9821 c0 -15 10 -19 53 -24 32 -4 57 -13 65 -24 15 -21 18 -704
2 -733 -7 -13 -26 -21 -65 -25 -45 -6 -55 -11 -55 -27 0 -19 9 -19 298 -16
284 3 299 4 338 25 107 57 148 121 142 219 -3 52 -9 70 -34 101 -39 48 -88 81
-141 96 l-42 11 42 18 c165 74 195 221 67 330 -71 62 -109 68 -406 68 -251 0
-264 -1 -264 -19z m537 -47 c91 -67 106 -181 36 -265 -46 -54 -93 -69 -220
-69 l-113 0 0 170 c0 150 2 170 18 180 10 6 63 9 134 8 100 -3 121 -6 145 -24z
m-28 -375 c162 -35 189 -284 39 -361 -45 -23 -237 -37 -280 -19 l-28 11 0 190
0 190 110 0 c60 0 132 -5 159 -11z"/>
<path stroke-width="1" d="M4640 9822 c0 -16 10 -20 53 -25 32 -4 57 -13 65 -24 15 -21 18 -704
2 -733 -7 -13 -26 -21 -65 -25 -45 -6 -55 -11 -55 -26 0 -18 12 -19 258 -19
335 0 378 12 487 131 89 99 125 227 105 372 -20 141 -114 278 -228 334 l-57
28 -282 3 c-273 3 -283 2 -283 -16z m553 -56 c62 -30 110 -85 141 -160 18 -44
21 -72 21 -201 0 -134 -3 -156 -24 -208 -30 -76 -69 -120 -138 -154 -52 -25
-67 -27 -174 -28 -64 0 -121 4 -126 8 -4 5 -8 177 -8 383 0 322 2 376 15 385
9 6 60 8 127 6 96 -4 120 -8 166 -31z"/>
<path stroke-width="1" d="M6030 9815 c0 -23 3 -25 49 -25 85 0 81 17 81 -381 0 -214 -4 -358
-10 -369 -7 -13 -26 -21 -65 -25 -45 -6 -55 -11 -55 -26 0 -18 14 -19 368 -19
l368 0 23 143 c12 78 25 152 28 165 4 17 1 22 -15 22 -15 0 -21 -9 -27 -37
-24 -133 -59 -193 -132 -225 -52 -23 -291 -37 -335 -19 l-28 11 0 185 0 185
68 0 c128 0 172 -29 172 -115 0 -28 4 -35 20 -35 19 0 20 7 20 170 0 163 -1
170 -20 170 -15 0 -20 -7 -20 -29 0 -42 -20 -90 -42 -102 -10 -6 -60 -13 -109
-16 l-89 -6 2 174 3 174 165 0 c155 0 167 -1 202 -23 44 -27 76 -89 85 -161 5
-42 9 -51 26 -51 22 0 22 -7 -5 203 l-11 87 -358 0 -359 0 0 -25z"/>
<path stroke-width="1" d="M7312 9818 c3 -20 10 -23 53 -26 27 -2 55 -8 62 -14 10 -8 13 -91 13
-372 0 -198 -4 -366 -8 -372 -4 -7 -33 -15 -64 -19 -48 -6 -58 -11 -58 -26 0
-19 9 -19 207 -17 185 3 208 5 211 20 3 14 -9 18 -68 24 -40 4 -78 13 -86 21
-11 11 -14 49 -14 180 l0 165 95 -4 c115 -4 135 -17 143 -97 4 -41 8 -51 23
-51 18 0 19 11 19 175 0 164 -1 175 -19 175 -15 0 -19 -10 -23 -52 -4 -40 -11
-57 -32 -75 -24 -20 -38 -23 -117 -23 l-89 0 0 163 c0 119 4 168 13 181 12 16
28 18 163 14 134 -3 153 -5 185 -26 43 -26 75 -87 85 -161 5 -41 10 -51 25
-51 23 0 23 -14 2 153 l-16 137 -354 0 -354 0 3 -22z"/>
<path stroke-width="1" d="M9980 9821 c0 -15 10 -19 55 -24 30 -3 59 -8 65 -12 12 -7 14 -733 2
-751 -4 -7 -33 -15 -64 -19 -48 -6 -58 -11 -58 -26 0 -18 11 -19 190 -19 181
0 190 1 190 19 0 16 -10 21 -56 27 -46 5 -57 10 -65 31 -5 13 -9 98 -9 189 l0
164 191 0 190 0 -3 -180 c-2 -102 -7 -183 -13 -189 -5 -5 -32 -12 -60 -15 -27
-2 -51 -5 -52 -5 -2 -1 -3 -10 -3 -21 0 -19 7 -20 190 -20 179 0 190 1 190 19
0 15 -10 20 -57 26 -32 4 -61 12 -65 19 -12 18 -10 744 2 751 6 4 35 9 65 12
45 5 55 9 55 24 0 18 -11 19 -190 19 -179 0 -190 -1 -190 -19 0 -15 10 -19 52
-24 28 -4 56 -11 62 -17 7 -7 12 -74 14 -170 l3 -160 -191 0 -191 0 3 160 c2
96 7 163 14 170 6 6 34 13 62 17 42 5 52 9 52 24 0 18 -11 19 -190 19 -179 0
-190 -1 -190 -19z"/>
<path stroke-width="1" d="M11350 9821 c0 -15 10 -19 56 -24 30 -3 62 -11 70 -18 12 -9 14 -71
14 -366 0 -213 -4 -362 -10 -373 -7 -13 -27 -20 -70 -25 -50 -6 -60 -10 -60
-26 0 -19 8 -19 197 -17 172 3 198 5 201 19 2 13 -9 18 -54 23 -32 4 -64 12
-71 18 -10 8 -13 85 -13 373 0 308 2 364 15 375 8 7 38 15 67 19 39 4 54 11
56 24 3 16 -11 17 -197 17 -189 0 -201 -1 -201 -19z"/>
<path stroke-width="1" d="M12410 9821 c0 -15 11 -19 71 -24 39 -3 77 -11 85 -18 12 -9 14 -69
14 -343 0 -301 -2 -335 -19 -372 -29 -64 -65 -87 -129 -82 -41 4 -60 11 -79
31 l-27 26 27 10 c51 19 62 77 22 116 -49 50 -125 16 -125 -54 0 -82 82 -158
182 -168 100 -10 199 40 242 122 20 38 21 60 26 380 l5 340 43 9 c30 7 42 15
42 28 0 17 -13 18 -190 18 -178 0 -190 -1 -190 -19z"/>
<path stroke-width="1" d="M13310 9821 c0 -15 10 -19 56 -24 31 -3 62 -11 68 -17 14 -14 21
-672 8 -722 -8 -31 -11 -33 -70 -42 -51 -7 -62 -12 -62 -27 0 -18 11 -19 190
-19 180 0 190 1 190 19 0 15 -11 20 -57 27 -69 11 -71 14 -72 165 l-1 107 70
66 c39 36 74 66 78 66 15 -1 244 -359 240 -377 -2 -11 -15 -20 -33 -23 -21 -4
-31 -12 -33 -28 l-3 -22 166 0 166 0 -3 23 c-2 18 -10 23 -40 25 -50 4 -61 17
-234 272 l-146 215 129 122 c124 118 188 163 231 163 34 0 52 11 52 31 0 18
-9 19 -140 19 -127 0 -140 -2 -140 -17 0 -10 14 -26 30 -35 17 -9 30 -23 30
-30 0 -13 -340 -350 -393 -389 l-28 -21 3 210 c2 133 7 215 14 222 6 6 34 13
62 17 42 5 52 9 52 24 0 18 -11 19 -190 19 -179 0 -190 -1 -190 -19z"/>
<path stroke-width="1" d="M14720 9821 c0 -15 10 -19 56 -24 31 -3 61 -10 66 -15 4 -4 7 -177 6
-383 l-3 -374 -62 -9 c-52 -7 -63 -12 -63 -27 0 -18 15 -19 334 -19 l334 0 6
28 c3 15 10 77 16 137 6 61 13 122 15 138 4 21 1 27 -15 27 -15 0 -20 -10 -26
-47 -17 -120 -69 -196 -151 -224 -43 -14 -237 -19 -250 -6 -9 10 -17 699 -8
734 6 25 56 43 123 43 35 0 42 3 42 20 0 19 -7 20 -210 20 -198 0 -210 -1
-210 -19z"/>
<path stroke-width="1" d="M15950 9822 c0 -16 10 -20 52 -25 28 -4 56 -11 62 -17 7 -7 12 -123
14 -345 3 -385 1 -399 -65 -410 -58 -10 -63 -13 -63 -35 0 -19 6 -20 151 -20
150 0 150 0 147 23 -2 18 -11 23 -47 28 -83 11 -81 2 -80 398 0 190 4 337 8
326 5 -11 70 -178 144 -371 160 -412 156 -404 174 -404 18 0 29 27 194 452
l134 347 3 -361 c1 -248 -1 -365 -9 -374 -6 -7 -35 -16 -65 -20 -44 -5 -54
-10 -54 -25 0 -18 10 -19 185 -19 174 0 185 1 185 19 0 15 -10 20 -52 25 -29
4 -58 12 -65 18 -10 8 -13 91 -13 373 0 409 -5 385 80 393 41 4 50 8 50 24 0
17 -8 18 -127 16 l-128 -3 -139 -357 c-77 -197 -142 -355 -145 -352 -3 3 -67
164 -142 357 l-136 352 -127 3 c-118 2 -126 1 -126 -16z"/>
<path stroke-width="1" d="M17530 9820 c0 -17 7 -20 39 -20 22 0 51 -4 65 -10 l26 -10 0 -345
c0 -415 2 -406 -100 -417 -17 -2 -26 -10 -28 -25 -3 -23 -3 -23 148 -23 151 0
151 0 148 23 -2 18 -11 23 -47 28 -83 11 -81 3 -81 392 0 187 2 338 4 336 2
-2 122 -177 265 -389 175 -257 268 -386 281 -388 20 -3 20 5 20 383 l0 386 23
23 c13 13 43 27 65 31 32 5 42 11 42 26 0 18 -9 19 -150 19 -143 0 -150 -1
-150 -20 0 -15 9 -21 41 -26 22 -4 50 -15 62 -24 22 -18 22 -24 25 -307 2
-169 -1 -284 -6 -278 -5 6 -107 155 -227 333 l-219 322 -123 0 c-116 0 -123
-1 -123 -20z"/>
<path stroke-width="1" d="M925 8240 c-79 -26 -145 -76 -200 -150 -61 -85 -87 -157 -93 -264 -8
-153 33 -269 131 -369 166 -170 423 -167 584 7 119 128 158 301 108 477 -33
115 -126 228 -231 280 -85 42 -207 50 -299 19z m234 -46 c106 -53 168 -175
178 -350 16 -268 -108 -470 -287 -468 -70 0 -123 28 -182 93 -94 105 -129 335
-78 521 18 65 43 110 87 152 83 80 187 99 282 52z"/>
<path stroke-width="1" d="M3639 8246 c-68 -18 -130 -59 -188 -122 -90 -98 -125 -195 -124 -339
1 -129 36 -222 117 -312 90 -100 211 -151 331 -140 33 3 67 8 76 12 12 5 18
-7 27 -55 22 -121 67 -173 147 -173 58 0 92 24 124 87 17 34 24 66 25 109 1
67 -18 90 -29 35 -15 -69 -86 -112 -146 -88 -25 11 -79 81 -79 102 0 3 23 20
50 38 67 43 114 99 157 189 32 66 37 86 41 172 7 148 -21 237 -107 346 -99
126 -267 181 -422 139z m208 -52 c61 -30 117 -89 145 -151 63 -142 62 -377 -1
-502 -22 -42 -78 -111 -90 -111 -4 0 -17 18 -30 40 -12 21 -35 48 -50 60 -35
24 -97 26 -130 4 -30 -21 -53 -77 -45 -109 9 -37 -10 -31 -66 21 -85 80 -120
182 -120 352 0 169 51 301 141 367 83 61 163 71 246 29z m-63 -684 c29 -11 66
-64 66 -96 0 -16 -10 -24 -39 -32 -56 -17 -82 -15 -108 10 -31 29 -30 72 2
103 26 27 41 30 79 15z"/>
<path stroke-width="1" d="M6240 8240 c-151 -71 -196 -252 -94 -385 36 -47 97 -77 214 -105 118
-28 165 -56 192 -117 40 -90 1 -206 -80 -240 -47 -19 -153 -13 -202 12 -78 39
-140 134 -140 215 0 23 -5 30 -20 30 -19 0 -20 -7 -20 -154 0 -163 8 -193 39
-146 43 65 43 65 85 36 68 -46 176 -65 257 -46 74 18 151 93 173 169 20 69 20
118 0 178 -36 108 -91 149 -259 192 -126 33 -160 53 -192 115 -21 40 -13 114
17 156 26 36 90 69 135 70 120 0 212 -93 239 -242 4 -24 13 -38 21 -38 13 0
15 27 15 160 0 176 -7 194 -49 120 -25 -44 -32 -48 -52 -24 -48 58 -199 81
-279 44z"/>
<path stroke-width="1" d="M2010 8211 c0 -15 9 -19 50 -23 85 -8 80 16 80 -392 0 -268 -3 -365
-12 -374 -7 -7 -26 -12 -43 -12 -50 0 -75 -11 -75 -31 0 -18 11 -19 190 -19
179 0 190 1 190 19 0 20 -25 31 -75 31 -52 0 -55 10 -55 187 l0 163 128 0
c144 0 203 13 272 59 64 43 93 91 98 161 6 77 -22 137 -86 185 -76 59 -114 65
-404 65 -245 0 -258 -1 -258 -19z m532 -50 c61 -29 83 -72 83 -166 0 -90 -23
-138 -79 -168 -34 -18 -62 -22 -163 -25 l-123 -4 0 190 c0 143 3 192 13 196 6
3 60 4 118 3 84 -3 114 -8 151 -26z"/>
<path stroke-width="1" d="M4710 8212 c0 -16 9 -20 51 -24 27 -3 56 -11 62 -17 16 -16 23 -695
8 -734 -8 -22 -17 -27 -43 -27 -52 0 -78 -11 -78 -31 0 -18 10 -19 185 -19
175 0 185 1 185 19 0 20 -26 31 -77 31 -22 0 -36 6 -43 19 -6 11 -10 91 -10
186 l0 167 104 -4 c87 -2 109 -7 132 -24 58 -43 67 -65 73 -186 8 -133 24
-170 88 -206 122 -67 239 -22 246 96 3 53 -22 49 -39 -6 -16 -56 -40 -82 -74
-82 -49 0 -66 37 -90 190 -6 41 -16 89 -22 105 -14 39 -73 100 -110 116 l-30
12 49 19 c57 21 127 77 148 119 17 32 20 96 5 133 -17 46 -79 103 -142 132
l-63 29 -257 3 c-249 3 -258 3 -258 -16z m516 -57 c56 -33 75 -71 76 -149 0
-85 -26 -137 -86 -165 -36 -18 -65 -22 -153 -24 l-108 -2 -3 175 c-3 214 -10
204 132 196 81 -4 106 -10 142 -31z"/>
<path stroke-width="1" d="M7217 8208 c-4 -18 -20 -212 -22 -263 0 -5 7 -11 16 -13 13 -2 19 13
29 75 15 95 31 128 73 150 41 22 200 31 222 13 13 -11 15 -64 15 -371 0 -396
1 -389 -64 -389 -18 0 -54 -3 -80 -6 -36 -5 -46 -11 -46 -25 0 -18 13 -19 245
-19 233 0 245 1 245 19 0 20 -39 31 -111 31 -73 0 -70 -18 -67 395 l3 370 100
0 c81 0 106 -4 132 -20 39 -23 63 -78 72 -162 5 -46 10 -59 25 -61 18 -4 18 2
11 100 -4 56 -10 123 -14 148 l-6 45 -386 3 -387 2 -5 -22z"/>
<path stroke-width="1" d="M8530 8210 c0 -16 7 -20 38 -20 20 0 48 -6 62 -13 l25 -13 5 -299 c5
-288 6 -302 28 -347 32 -65 94 -125 160 -156 76 -35 186 -37 249 -4 65 34 106
75 139 139 l29 58 5 293 c5 290 5 294 28 312 12 10 40 21 62 25 30 5 40 11 40
26 0 18 -9 19 -150 19 -143 0 -150 -1 -150 -20 0 -11 6 -20 13 -20 6 0 29 -5
50 -11 65 -18 70 -40 65 -338 -3 -241 -5 -259 -26 -306 -29 -62 -75 -112 -127
-136 -79 -37 -183 -15 -238 50 -51 61 -57 107 -57 420 0 157 4 292 9 299 4 7
33 16 64 19 47 5 57 9 57 24 0 18 -11 19 -190 19 -183 0 -190 -1 -190 -20z"/>
<path stroke-width="1" d="M9890 8210 c0 -14 7 -20 24 -20 12 0 37 -5 54 -11 28 -9 36 -22 64
-97 18 -47 89 -235 158 -416 110 -291 128 -331 148 -334 27 -4 18 -25 192 436
90 238 142 361 159 378 13 13 44 29 68 35 32 8 43 16 43 30 0 18 -10 19 -140
19 -133 0 -140 -1 -140 -20 0 -13 9 -22 28 -26 35 -9 62 -32 62 -55 0 -19
-217 -599 -228 -611 -4 -4 -62 137 -129 314 -88 232 -119 326 -112 335 6 6 31
15 55 19 34 5 44 10 42 23 -3 14 -26 16 -176 19 -167 2 -172 2 -172 -18z"/>
<path stroke-width="1" d="M11260 8211 c0 -14 10 -20 41 -24 23 -3 48 -12 55 -19 8 -8 72 -193
144 -413 72 -220 137 -406 145 -414 13 -13 17 -13 28 -1 7 8 57 152 111 320
54 168 102 308 105 313 4 4 53 -134 110 -307 56 -173 109 -320 117 -327 11 -9
18 -9 26 -1 6 6 68 187 138 403 73 222 136 400 147 410 10 10 36 24 58 31 23
8 41 20 43 31 3 15 -9 17 -137 17 -134 0 -141 -1 -141 -20 0 -13 9 -22 28 -26
44 -9 71 -26 78 -47 6 -19 -175 -597 -187 -597 -7 0 -199 590 -199 612 0 16
51 38 88 38 6 0 12 9 12 20 0 19 -7 20 -170 20 -159 0 -170 -1 -170 -19 0 -14
10 -20 40 -24 53 -7 66 -18 86 -79 l17 -51 -84 -258 c-46 -143 -87 -259 -90
-259 -7 0 -199 590 -199 612 0 16 51 38 88 38 6 0 12 9 12 20 0 19 -7 20 -170
20 -159 0 -170 -1 -170 -19z"/>
<path stroke-width="1" d="M13010 8211 c0 -15 10 -19 51 -24 29 -4 61 -14 72 -24 11 -10 72 -96
135 -192 l115 -174 -17 -31 c-9 -17 -61 -94 -114 -171 -81 -117 -104 -144
-142 -162 -24 -13 -59 -23 -77 -23 -29 0 -33 -3 -33 -25 l0 -26 153 3 c144 3
152 4 152 23 0 12 -8 21 -20 23 -27 5 -55 31 -55 51 0 17 173 283 184 282 4 0
52 -69 107 -153 94 -140 100 -153 83 -165 -10 -7 -28 -13 -41 -13 -18 0 -23
-6 -23 -25 l0 -25 175 0 c165 0 175 1 175 19 0 21 -19 31 -60 31 -16 0 -36 3
-46 7 -16 6 -294 417 -294 435 0 6 41 70 91 144 98 144 124 167 207 185 41 8
52 15 52 30 0 18 -9 19 -155 19 -143 0 -155 -1 -155 -18 0 -11 13 -24 32 -33
60 -27 59 -37 -22 -159 -40 -61 -76 -113 -80 -115 -4 -3 -45 51 -90 120 -89
134 -91 146 -30 159 21 4 30 11 30 26 0 19 -6 20 -180 20 -169 0 -180 -1 -180
-19z"/>
<path stroke-width="1" d="M14350 8210 c0 -15 7 -20 28 -20 15 0 43 -5 62 -10 33 -9 47 -28 178
-241 l142 -231 0 -137 c0 -150 -4 -161 -55 -161 -50 0 -75 -11 -75 -31 0 -18
11 -19 190 -19 181 0 190 1 190 19 0 16 -9 21 -47 26 -80 10 -78 5 -81 164
l-3 142 121 197 c131 215 165 257 213 267 59 12 67 16 67 36 0 18 -8 19 -135
19 -124 0 -135 -2 -135 -18 0 -11 13 -24 32 -33 18 -8 34 -22 36 -31 3 -17
-205 -368 -218 -368 -13 0 -232 371 -227 385 3 7 22 17 41 21 26 4 36 11 36
25 0 18 -10 19 -180 19 -173 0 -180 -1 -180 -20z"/>
<path stroke-width="1" d="M15816 8178 c-3 -29 -7 -95 -9 -145 -4 -84 -3 -93 13 -93 14 0 20 13
29 62 14 82 50 134 109 161 38 16 74 21 185 25 75 3 137 1 137 -3 0 -4 -110
-181 -245 -394 -135 -213 -245 -397 -245 -409 l0 -22 309 0 309 0 6 53 c3 28
8 105 12 170 7 115 6 117 -15 117 -18 0 -21 -6 -21 -43 0 -56 -24 -137 -51
-171 -45 -57 -89 -70 -258 -74 l-155 -4 16 23 c147 227 477 759 480 774 3 20
-3 20 -299 23 l-302 2 -5 -52z"/>
<path stroke-width="1" d="M17094 7911 c-56 -26 -84 -64 -84 -115 0 -51 13 -66 57 -66 59 0 86
88 32 105 -27 9 -20 27 22 47 47 25 99 23 140 -5 41 -27 61 -66 67 -129 l4
-47 -38 -6 c-185 -28 -274 -68 -307 -138 -55 -116 22 -206 176 -207 77 0 112
14 151 60 l26 31 9 -23 c22 -57 84 -80 141 -51 40 21 59 62 59 136 1 41 -2 47
-19 47 -17 0 -20 -7 -20 -49 0 -65 -14 -101 -39 -101 -43 0 -51 33 -51 220 0
161 -2 178 -21 210 -26 42 -41 55 -94 80 -53 26 -155 26 -211 1z m234 -340
c-3 -99 -16 -127 -78 -168 -88 -60 -201 16 -172 115 23 75 122 140 215 142
l39 0 -4 -89z"/>
<path stroke-width="1" d="M5050 6634 c-38 -16 -85 -57 -103 -89 -6 -11 -14 -69 -17 -130 l-5
-110 -47 -3 c-40 -3 -48 -6 -48 -23 0 -16 7 -19 50 -19 l50 0 0 -211 c0 -126
-4 -218 -10 -230 -8 -14 -21 -19 -50 -19 -36 0 -40 -3 -40 -25 l0 -25 156 0
155 0 -3 23 c-2 18 -10 23 -48 25 -24 2 -50 8 -57 14 -10 8 -13 65 -13 229 l0
219 70 0 c63 0 70 2 70 20 0 17 -8 19 -72 22 l-73 3 -3 69 c-6 133 32 224 102
242 31 7 45 -1 28 -18 -18 -18 -14 -63 6 -81 43 -39 95 -8 90 51 -6 70 -102
103 -188 66z"/>
<path stroke-width="1" d="M690 6633 c-82 -5 -100 -11 -100 -33 0 -15 7 -20 28 -20 15 0 38 -7
50 -16 l22 -15 0 -400 c0 -385 1 -399 19 -399 11 0 28 15 41 36 l21 37 32 -31
c42 -40 75 -52 145 -52 98 1 197 63 244 155 25 48 35 162 19 221 -46 169 -259
256 -388 158 -17 -13 -34 -24 -37 -24 -3 0 -6 88 -6 195 0 180 -1 195 -17 193
-10 -1 -43 -3 -73 -5z m331 -376 c19 -12 45 -43 59 -67 23 -41 25 -56 25 -160
0 -99 -3 -121 -22 -156 -60 -113 -185 -137 -261 -49 -38 43 -45 86 -41 244 4
111 6 121 29 147 63 68 147 84 211 41z"/>
<path stroke-width="1" d="M3160 6633 c-81 -5 -100 -11 -100 -32 0 -14 10 -20 40 -25 54 -9 60
-27 60 -192 l0 -135 -32 25 c-125 94 -325 23 -394 -140 -24 -55 -22 -168 3
-225 47 -105 140 -169 246 -169 65 0 114 17 146 51 l21 23 0 -37 0 -37 48 0
c26 0 71 3 100 7 47 5 53 8 50 27 -2 16 -11 22 -40 24 -20 2 -41 9 -47 16 -7
8 -12 150 -13 417 -3 351 -5 404 -18 405 -8 0 -40 -1 -70 -3z m-84 -369 c65
-31 74 -61 74 -238 l0 -156 -36 -40 c-59 -65 -147 -77 -209 -28 -15 12 -38 44
-51 72 -20 43 -24 67 -24 151 0 84 4 108 24 151 22 46 57 82 96 97 30 11 93 7
126 -9z"/>
<path stroke-width="1" d="M6790 6633 c-81 -5 -100 -11 -100 -32 0 -14 10 -20 41 -24 23 -3 46
-11 50 -19 5 -7 8 -179 6 -383 l-2 -370 -45 -5 c-37 -4 -45 -9 -45 -25 0 -19
8 -20 148 -23 l148 -3 -3 23 c-2 19 -11 24 -48 28 l-45 5 -3 155 c-4 187 0
210 40 256 39 44 77 64 121 64 78 0 97 -56 97 -292 0 -170 -6 -188 -60 -188
-36 0 -40 -2 -40 -25 l0 -25 146 0 c145 0 145 0 142 23 -2 17 -10 23 -40 25
-20 2 -41 9 -46 15 -6 7 -12 98 -14 207 -3 213 -10 239 -67 273 -77 45 -183
29 -248 -39 l-43 -44 0 215 c0 199 -1 215 -17 213 -10 -1 -43 -3 -73 -5z"/>
<path stroke-width="1" d="M9500 6633 c-82 -5 -100 -11 -100 -33 0 -15 7 -20 28 -20 15 0 38 -7
50 -16 l22 -15 0 -362 c0 -199 -4 -367 -8 -374 -4 -6 -25 -13 -47 -15 -33 -2
-41 -7 -43 -25 -3 -23 -3 -23 143 -23 146 0 146 0 143 23 -2 18 -11 23 -48 27
l-45 5 -3 85 -3 85 36 35 36 35 20 -25 c10 -14 45 -62 75 -107 55 -80 64 -113
29 -113 -9 0 -15 -9 -15 -25 l0 -25 125 0 125 0 0 25 c0 21 -5 25 -28 25 -43
0 -65 21 -168 167 l-96 135 28 25 c83 70 147 111 188 122 35 9 46 16 46 31 0
19 -7 20 -120 20 -103 0 -120 -2 -120 -16 0 -9 10 -24 22 -34 20 -16 21 -20 9
-41 -7 -13 -52 -57 -100 -98 l-86 -74 -3 301 c-2 280 -4 302 -20 300 -9 -1
-42 -3 -72 -5z"/>
<path stroke-width="1" d="M10600 6633 c-81 -5 -100 -11 -100 -32 0 -14 10 -20 40 -25 24 -4 43
-14 50 -25 15 -30 14 -723 -2 -739 -7 -7 -29 -12 -50 -12 -34 0 -38 -3 -38
-25 l0 -25 146 0 c145 0 145 0 142 23 -2 18 -10 23 -43 25 -22 2 -43 9 -47 15
-4 7 -8 195 -8 420 0 382 -1 407 -17 405 -10 -1 -43 -3 -73 -5z"/>
<path stroke-width="1" d="M7930 6602 c-30 -10 -50 -36 -50 -67 0 -78 111 -91 135 -16 14 44
-40 97 -85 83z"/>
<path stroke-width="1" d="M8740 6603 c-31 -11 -50 -37 -50 -68 0 -39 26 -65 66 -65 40 0 62 18
70 55 9 48 -42 94 -86 78z"/>
<path stroke-width="1" d="M1959 6319 c-84 -12 -156 -67 -201 -152 -19 -35 -23 -58 -23 -137 0
-87 3 -100 29 -148 52 -94 133 -142 239 -142 47 0 75 6 106 23 71 37 134 145
90 155 -11 2 -20 -7 -27 -26 -15 -44 -69 -100 -105 -108 -68 -16 -121 1 -168
53 -43 47 -54 89 -54 203 0 89 4 112 22 147 42 79 112 113 193 93 50 -12 89
-40 56 -40 -9 0 -21 -11 -27 -24 -27 -58 24 -110 79 -84 22 11 28 21 30 54 7
90 -106 153 -239 133z"/>
<path stroke-width="1" d="M6090 6323 c-8 -3 -28 -15 -43 -26 -28 -19 -29 -19 -70 -1 -60 27
-151 24 -205 -6 -83 -47 -120 -141 -88 -224 9 -25 23 -49 30 -55 11 -9 10 -18
-6 -49 -24 -46 -19 -112 11 -153 l22 -29 -23 -9 c-66 -26 -104 -111 -74 -169
74 -143 451 -149 537 -8 33 55 19 136 -32 183 -47 43 -97 56 -233 61 -119 4
-132 7 -153 28 -23 23 -33 87 -14 98 5 3 30 -2 56 -10 144 -50 294 52 282 189
-2 28 -13 60 -25 77 -20 27 -20 28 -3 44 10 9 32 21 49 25 30 9 31 8 34 -22 2
-26 8 -33 29 -35 48 -6 62 44 23 83 -15 15 -74 19 -104 8z m-145 -67 c55 -55
58 -195 5 -248 -37 -37 -106 -40 -137 -5 -43 45 -53 152 -21 221 25 57 111 74
153 32z m115 -518 c46 -20 62 -40 63 -82 4 -133 -285 -179 -392 -62 -43 46
-27 120 33 151 40 20 242 16 296 -7z"/>
<path stroke-width="1" d="M18231 6319 c-82 -11 -138 -62 -148 -136 -12 -88 50 -148 182 -178
129 -29 165 -56 165 -125 0 -72 -68 -118 -156 -106 -77 10 -121 57 -145 152
-8 32 -16 44 -30 44 -18 0 -19 -9 -19 -115 0 -96 3 -115 15 -115 8 0 24 11 36
24 l21 24 41 -24 c58 -33 154 -33 217 -1 78 39 112 137 76 220 -27 63 -78 94
-205 122 -121 28 -163 87 -107 152 21 25 32 28 99 31 70 4 76 3 107 -25 21
-19 36 -45 45 -78 7 -32 18 -51 29 -53 14 -3 16 9 16 92 0 52 -4 97 -9 100 -5
3 -19 -3 -32 -13 -19 -15 -28 -17 -44 -8 -31 17 -95 23 -154 16z"/>
<path stroke-width="1" d="M3995 6301 c-175 -83 -213 -345 -71 -483 53 -52 101 -72 181 -76 59
-3 77 0 115 20 69 37 142 158 95 158 -8 0 -22 -15 -31 -32 -37 -75 -88 -108
-162 -108 -94 0 -160 76 -170 196 l-5 64 189 2 189 3 -1 61 c-1 73 -30 132
-87 178 -35 28 -46 31 -120 34 -64 2 -91 -2 -122 -17z m180 -42 c35 -31 65
-103 65 -156 0 -23 0 -23 -145 -23 l-145 0 0 28 c2 92 79 182 157 182 22 0 44
-10 68 -31z"/>
<path stroke-width="1" d="M7925 6313 c-76 -5 -95 -11 -95 -32 0 -14 10 -20 40 -25 30 -5 41
-12 45 -29 3 -12 4 -112 3 -222 l-3 -200 -45 -5 c-37 -4 -46 -9 -48 -27 -3
-23 -3 -23 137 -23 l141 0 0 25 c0 22 -4 25 -33 25 -18 0 -38 5 -45 12 -9 9
-12 80 -12 260 0 230 -1 248 -17 246 -10 -1 -40 -3 -68 -5z"/>
<path stroke-width="1" d="M8735 6313 c-85 -4 -105 -10 -105 -32 0 -14 10 -20 42 -24 70 -9 69
-5 66 -347 -3 -269 -5 -309 -21 -337 -18 -33 -53 -50 -92 -44 -28 4 -28 5 -8
38 16 28 16 32 1 55 -36 54 -101 38 -106 -26 -4 -47 24 -81 77 -96 88 -24 165
5 209 78 l27 47 3 348 c3 329 2 347 -15 345 -10 -1 -45 -3 -78 -5z"/>
<path stroke-width="1" d="M11370 6313 c-81 -5 -100 -11 -100 -32 0 -14 10 -20 41 -24 23 -3 46
-11 50 -19 5 -7 8 -107 6 -223 l-2 -210 -45 -5 c-37 -4 -45 -9 -45 -25 0 -19
8 -20 148 -23 l148 -3 -3 23 c-2 19 -11 24 -48 28 l-45 5 -3 155 c-4 187 0
210 40 256 39 44 77 64 121 64 78 0 97 -56 97 -292 0 -170 -6 -188 -60 -188
-36 0 -40 -2 -40 -25 l0 -25 146 0 c145 0 145 0 142 23 -2 18 -10 23 -43 25
-22 2 -43 9 -47 15 -12 18 -9 297 3 340 12 45 58 100 98 116 47 20 101 10 125
-22 19 -26 21 -44 24 -223 3 -141 0 -199 -8 -210 -7 -8 -30 -14 -51 -14 -35 0
-39 -3 -39 -25 l0 -25 145 0 145 0 0 25 c0 22 -4 25 -38 25 -21 0 -43 5 -50
12 -8 8 -12 68 -12 203 0 167 -2 195 -19 225 -48 90 -199 105 -286 29 -19 -17
-37 -40 -41 -52 -6 -19 -8 -18 -23 13 -20 44 -68 76 -125 84 -67 10 -124 -9
-173 -59 l-43 -42 0 53 c0 45 -3 54 -17 52 -10 -1 -43 -3 -73 -5z"/>
<path stroke-width="1" d="M12850 6313 c-82 -5 -100 -11 -100 -33 0 -15 7 -20 24 -20 14 0 36
-4 51 -10 l25 -10 -2 -217 -3 -218 -45 -5 c-37 -4 -45 -9 -45 -25 0 -19 8 -20
148 -23 l148 -3 -3 23 c-2 19 -11 24 -48 28 l-45 5 -3 155 c-3 172 5 219 46
263 37 39 74 57 120 57 50 0 69 -21 82 -90 13 -69 13 -346 0 -371 -8 -14 -21
-19 -50 -19 -36 0 -40 -3 -40 -25 l0 -25 145 0 145 0 0 25 c0 22 -4 25 -38 25
-21 0 -43 5 -50 12 -8 8 -12 66 -12 197 0 167 -2 189 -21 228 -23 48 -57 70
-121 79 -68 9 -127 -11 -175 -62 l-43 -44 0 55 c0 46 -3 55 -17 53 -10 -1 -43
-3 -73 -5z"/>
<path stroke-width="1" d="M14045 6296 c-62 -28 -128 -101 -149 -163 -23 -66 -20 -167 5 -223
46 -102 147 -170 255 -170 34 0 76 5 95 12 81 27 157 103 180 179 17 60 12
163 -12 218 -24 56 -101 134 -154 157 -55 22 -161 18 -220 -10z m178 -20 c43
-18 84 -67 98 -119 6 -24 9 -87 7 -147 -3 -87 -7 -112 -26 -145 -37 -64 -66
-80 -144 -80 -63 0 -69 2 -103 35 -45 44 -65 109 -65 214 0 132 28 198 98 236
44 23 91 25 135 6z"/>
<path stroke-width="1" d="M15035 6313 c-87 -5 -105 -10 -105 -33 0 -15 7 -20 24 -20 14 0 36
-4 50 -10 l26 -10 0 -340 0 -340 -22 -5 c-13 -2 -34 -6 -48 -7 -17 -2 -25 -9
-25 -22 0 -18 9 -19 145 -19 141 0 145 0 148 21 3 19 -1 22 -35 22 -22 0 -44
5 -51 12 -8 8 -12 51 -12 126 l0 113 37 -28 c33 -25 44 -28 117 -28 94 0 138
17 198 77 70 70 96 158 77 262 -34 195 -235 292 -391 190 -21 -13 -40 -24 -43
-24 -3 0 -5 16 -5 35 0 22 -5 34 -12 33 -7 -1 -40 -3 -73 -5z m316 -56 c69
-46 101 -121 100 -238 -1 -213 -195 -330 -297 -180 -23 34 -24 43 -24 193 l0
157 34 33 c62 59 132 72 187 35z"/>
<path stroke-width="1" d="M16279 6307 c-120 -34 -209 -154 -209 -282 0 -81 27 -144 88 -205 62
-61 107 -80 186 -80 57 0 108 20 141 56 l25 27 0 -125 c0 -83 -4 -128 -12
-136 -7 -7 -29 -12 -51 -12 -34 0 -38 -3 -35 -21 3 -21 8 -22 146 -23 141 -1
142 -1 142 22 0 18 -5 22 -34 22 -68 0 -66 -9 -66 401 0 333 -2 370 -16 367
-9 -2 -26 -26 -38 -55 l-22 -52 -27 34 c-50 63 -131 86 -218 62z m160 -55 c14
-10 36 -38 48 -62 20 -38 23 -57 23 -167 0 -138 -7 -160 -64 -211 -84 -74
-182 -41 -235 78 -44 100 -35 222 22 307 56 81 140 104 206 55z"/>
<path stroke-width="1" d="M17250 6313 c-82 -5 -100 -11 -100 -33 0 -15 7 -20 24 -20 14 0 36
-4 51 -10 l25 -10 -2 -217 -3 -218 -45 -5 c-37 -4 -45 -9 -45 -25 0 -19 8 -20
158 -23 l158 -3 -3 23 c-3 20 -10 23 -56 26 -47 3 -54 6 -63 30 -16 41 -5 286
16 344 18 51 73 108 105 108 17 0 18 -3 8 -25 -17 -37 13 -77 55 -73 75 7 70
98 -7 127 -55 21 -109 1 -153 -57 l-32 -42 -3 52 c-3 58 0 56 -88 51z"/>
<path stroke-width="1" d="M13277 4978 c-75 -99 -387 -589 -387 -607 0 -21 4 -21 170 -21 l170
0 0 -68 c0 -40 -5 -73 -12 -80 -7 -7 -34 -12 -60 -12 -45 0 -48 -2 -48 -25 l0
-25 176 0 175 0 -3 23 c-3 19 -11 23 -55 27 -28 3 -55 9 -59 12 -4 4 -9 39
-12 78 l-5 70 67 0 c64 0 66 1 66 25 0 24 -2 25 -65 25 l-65 0 -2 302 c-2 217
-6 302 -15 305 -6 2 -22 -11 -36 -29z m-37 -353 l0 -225 -150 0 -149 0 147
225 c81 124 148 225 150 225 1 0 2 -101 2 -225z"/>
<path stroke-width="1" d="M16147 5003 c-3 -5 -12 -55 -21 -113 -9 -58 -19 -115 -22 -127 -3
-18 0 -23 15 -23 19 0 23 6 36 65 12 55 14 55 206 55 99 0 179 -2 179 -5 0 -3
-37 -58 -82 -123 -149 -211 -209 -385 -199 -569 1 -30 42 -56 74 -48 37 10 45
42 51 200 4 138 22 237 54 300 8 17 59 94 113 171 55 78 99 149 99 158 0 14
-19 16 -157 17 -203 0 -292 10 -305 32 -9 17 -33 23 -41 10z"/>
<path stroke-width="1" d="M8845 4972 c-77 -36 -133 -123 -154 -238 -16 -85 -13 -307 4 -382 39
-163 121 -238 261 -236 107 1 184 62 225 179 42 119 41 392 -1 511 -24 69 -59
116 -112 152 -54 36 -162 42 -223 14z m175 -40 c14 -10 36 -40 50 -68 25 -48
25 -52 25 -304 0 -222 -2 -261 -18 -302 -41 -105 -139 -141 -211 -78 -62 55
-69 88 -74 341 -4 245 4 314 41 371 44 66 127 84 187 40z"/>
<path stroke-width="1" d="M9982 4960 c-27 -18 -70 -33 -113 -41 -58 -10 -69 -15 -69 -32 0 -18
5 -19 58 -14 31 3 67 8 80 12 l22 7 0 -340 c0 -265 -3 -342 -13 -350 -7 -6
-42 -12 -77 -14 -59 -3 -65 -5 -68 -25 l-3 -23 210 0 211 0 0 25 c0 24 -2 25
-64 25 -101 0 -96 -23 -96 422 0 427 5 403 -78 348z"/>
<path stroke-width="1" d="M10950 4974 c-45 -19 -97 -69 -121 -116 -25 -49 -26 -129 -1 -151 25
-22 75 -21 95 1 35 38 12 112 -34 112 -55 0 28 100 99 119 151 41 257 -143
179 -313 -37 -80 -70 -123 -221 -291 -89 -98 -136 -158 -136 -172 l0 -23 234
0 c215 0 235 1 240 18 2 9 10 51 16 92 6 41 13 85 16 98 3 17 0 22 -15 22 -15
0 -22 -12 -32 -57 l-14 -58 -55 -7 c-30 -3 -107 -6 -170 -7 l-115 0 177 172
c201 194 222 227 222 333 -1 109 -72 206 -172 234 -53 14 -151 12 -192 -6z"/>
<path stroke-width="1" d="M12019 4976 c-51 -18 -97 -53 -114 -86 -21 -41 -19 -103 3 -123 25
-22 75 -21 95 1 35 39 10 112 -38 112 -15 0 -16 2 -4 17 24 28 91 53 145 53
43 0 57 -5 82 -28 37 -35 50 -99 32 -170 -23 -98 -63 -134 -162 -147 -76 -10
-62 -32 22 -37 120 -6 165 -63 165 -208 -1 -99 -21 -152 -69 -181 -60 -37
-181 -16 -230 39 -18 21 -18 22 7 31 76 29 55 141 -26 141 -57 0 -86 -51 -67
-119 15 -56 51 -95 117 -127 72 -36 183 -39 254 -7 93 41 153 129 152 224 -1
94 -61 178 -155 216 l-40 16 28 15 c113 57 168 198 111 283 -57 85 -199 124
-308 85z"/>
<path stroke-width="1" d="M14046 4974 c-3 -9 -6 -105 -6 -215 0 -229 4 -238 68 -177 49 47 73
59 125 60 90 1 129 -58 135 -205 6 -145 -17 -213 -86 -259 -64 -43 -186 -8
-231 66 -27 43 -26 44 6 48 17 2 33 13 42 30 33 59 -28 120 -87 87 -22 -12
-28 -23 -30 -61 -8 -126 98 -232 233 -231 108 0 195 55 244 155 54 107 37 240
-42 325 -78 85 -178 106 -273 58 -27 -14 -50 -25 -51 -25 -2 0 -3 50 -3 110
l0 110 68 -6 c84 -8 141 6 208 52 49 33 84 77 71 90 -4 4 -33 -2 -64 -12 -72
-23 -199 -24 -262 0 -54 20 -57 20 -65 0z"/>
<path stroke-width="1" d="M15275 4978 c-114 -41 -207 -162 -235 -306 -18 -89 -8 -280 18 -362
50 -154 185 -229 326 -181 127 43 205 218 162 364 -54 184 -273 261 -371 129
l-27 -37 5 75 c10 139 58 234 138 276 37 19 113 18 151 -2 l32 -16 -32 -14
c-29 -12 -32 -17 -32 -54 0 -33 4 -42 24 -51 14 -7 36 -9 50 -5 75 19 47 146
-40 182 -39 16 -126 17 -169 2z m91 -347 c55 -34 69 -79 69 -226 0 -108 -3
-137 -19 -169 -38 -75 -135 -101 -194 -51 -54 45 -66 86 -67 220 0 113 2 123
28 167 15 26 40 54 55 62 37 21 91 19 128 -3z"/>
<path stroke-width="1" d="M17325 4980 c-42 -13 -109 -72 -129 -114 -23 -48 -21 -130 5 -183 12
-25 39 -56 65 -75 24 -17 44 -34 44 -37 0 -3 -24 -22 -52 -41 -210 -142 -115
-412 145 -414 157 0 268 99 268 238 0 92 -37 153 -145 231 l-27 20 48 35 c64
47 96 108 90 176 -7 100 -87 165 -211 170 -39 2 -85 -1 -101 -6z m164 -45
c106 -54 117 -176 24 -262 -25 -24 -50 -43 -55 -43 -16 0 -186 119 -202 142
-35 49 -13 116 50 154 46 28 138 33 183 9z m-34 -453 c118 -76 145 -108 145
-172 0 -38 -6 -55 -26 -80 -83 -98 -262 -93 -330 10 -54 82 -40 166 41 248 28
28 58 52 66 52 8 0 55 -26 104 -58z"/>
<path stroke-width="1" d="M740 4897 c0 -93 -55 -184 -126 -207 -55 -18 -44 -40 21 -40 l55 0 0
-202 c0 -174 3 -208 18 -237 25 -50 63 -74 126 -79 67 -5 97 10 126 68 24 47
29 180 7 180 -8 0 -16 -27 -23 -79 -14 -99 -32 -131 -77 -131 -76 1 -87 38
-87 285 l0 195 90 0 c83 0 90 2 90 20 0 17 -8 19 -87 22 l-88 3 -3 118 c-2
109 -4 117 -22 117 -16 0 -20 -7 -20 -33z"/>
<path stroke-width="1" d="M1590 4701 c-67 -5 -75 -8 -78 -27 -3 -18 3 -22 38 -27 23 -3 45 -8
48 -12 4 -4 9 -95 12 -203 6 -227 13 -251 83 -283 51 -23 141 -25 190 -4 19 8
47 29 61 47 l26 33 0 -47 c0 -48 0 -48 34 -48 18 0 61 3 95 6 56 6 62 9 59 28
-2 16 -11 22 -38 24 -19 2 -41 8 -47 14 -10 8 -13 72 -13 259 l0 248 -82 -5
c-102 -7 -108 -9 -108 -32 0 -13 11 -21 43 -28 l42 -9 3 -170 c2 -160 1 -173
-20 -214 -13 -25 -34 -53 -48 -63 -58 -42 -151 -31 -173 21 -6 16 -12 122 -15
264 -3 213 -5 237 -20 235 -10 -1 -51 -4 -92 -7z"/>
<path stroke-width="1" d="M2620 4670 c0 -15 7 -20 29 -20 16 0 38 -8 50 -17 12 -11 62 -119
118 -258 123 -300 119 -298 191 -123 28 68 70 172 93 231 45 115 73 152 120
162 20 5 29 13 29 26 0 18 -8 19 -105 19 -93 0 -105 -2 -105 -17 0 -10 14 -26
30 -35 17 -9 30 -24 30 -32 0 -14 -112 -303 -129 -335 -5 -8 -35 54 -81 169
-70 174 -72 184 -55 196 10 8 27 14 37 14 11 0 18 7 18 20 0 19 -7 20 -135 20
-128 0 -135 -1 -135 -20z"/>
<path stroke-width="1" d="M3712 4673 c2 -10 17 -20 36 -24 19 -4 38 -11 44 -17 6 -6 49 -120
97 -254 73 -207 89 -243 107 -246 16 -2 24 4 32 25 5 15 33 93 62 173 28 80
55 149 59 153 4 4 36 -72 71 -169 34 -96 69 -178 77 -181 8 -3 20 1 27 8 7 8
46 106 86 219 90 254 92 258 141 278 26 10 39 21 39 34 0 16 -10 18 -110 18
-103 0 -110 -1 -110 -20 0 -11 7 -20 15 -20 9 0 27 -11 40 -24 23 -23 24 -27
11 -68 -21 -70 -98 -282 -105 -290 -9 -10 -135 348 -127 360 3 6 20 13 36 17
21 5 30 13 30 26 0 18 -8 19 -125 19 -115 0 -125 -1 -125 -19 0 -14 10 -20 40
-25 34 -5 42 -12 55 -43 16 -37 15 -40 -36 -187 l-53 -149 -12 34 c-81 228
-110 316 -107 326 3 7 20 15 39 19 24 4 34 12 34 25 0 18 -9 19 -136 19 -122
0 -135 -2 -132 -17z"/>
<path stroke-width="1" d="M5480 4671 c0 -14 10 -20 40 -24 51 -7 52 -7 149 -132 l80 -104 -58
-73 c-93 -117 -135 -148 -197 -148 -19 0 -24 -5 -24 -25 l0 -25 115 0 c115 0
115 0 115 24 0 13 -7 26 -15 30 -28 10 -16 51 33 111 26 32 52 60 57 61 12 4
105 -120 113 -148 3 -14 -2 -21 -17 -25 -14 -3 -21 -13 -21 -29 l0 -24 136 0
c135 0 135 0 132 23 -2 18 -10 23 -43 25 -49 4 -65 18 -167 149 -70 91 -78
105 -66 121 90 125 144 172 216 187 22 5 32 12 32 26 0 18 -8 19 -115 19 -96
0 -115 -3 -115 -15 0 -8 9 -24 20 -35 11 -11 20 -24 20 -29 0 -17 -92 -131
-101 -126 -18 12 -99 124 -99 139 0 8 9 18 20 21 11 3 20 15 20 26 0 18 -8 19
-130 19 -120 0 -130 -1 -130 -19z"/>
<path stroke-width="1" d="M6570 4670 c0 -15 7 -20 29 -20 16 0 38 -8 50 -17 12 -10 62 -119
117 -252 l96 -234 -18 -46 c-49 -132 -92 -181 -158 -181 -37 0 -48 13 -21 24
18 7 20 67 3 84 -20 20 -76 15 -89 -9 -28 -52 17 -122 87 -135 51 -9 85 3 129
50 34 35 60 90 169 354 134 324 145 344 206 357 21 5 30 13 30 26 0 18 -8 19
-105 19 -95 0 -105 -2 -105 -18 0 -11 11 -24 25 -30 18 -8 25 -19 25 -39 0
-33 -122 -336 -131 -325 -16 20 -139 337 -135 349 3 7 19 16 36 19 21 5 30 12
30 25 0 18 -10 19 -135 19 -128 0 -135 -1 -135 -20z"/>
<path stroke-width="1" d="M7706 4678 c-3 -7 -7 -55 -10 -105 -4 -86 -3 -93 14 -93 14 0 20 10
25 49 15 107 58 134 211 129 l86 -3 -175 -237 c-97 -130 -177 -245 -179 -255
-3 -17 11 -18 223 -21 l227 -2 5 22 c3 13 9 67 12 121 7 92 6 99 -10 95 -14
-2 -22 -20 -31 -67 -22 -107 -60 -131 -209 -131 -52 0 -95 2 -95 5 0 3 77 110
171 237 95 128 174 240 177 250 4 17 -9 18 -217 18 -169 0 -223 -3 -225 -12z"/>
<path stroke-width="1" d="M5062 2853 l3 -638 98 -3 c92 -3 97 -2 97 18 0 18 -6 20 -55 20 l-55
0 0 599 0 600 52 3 c41 2 54 7 56 21 3 15 -7 17 -97 17 l-101 0 2 -637z"/>
<path stroke-width="1" d="M5732 3473 c2 -14 15 -19 56 -21 l52 -3 0 -600 0 -599 -56 0 c-47 0
-55 -3 -52 -17 3 -15 17 -18 101 -21 l97 -3 0 641 0 640 -101 0 c-90 0 -100
-2 -97 -17z"/>
<path stroke-width="1" d="M6556 3482 c-9 -15 454 -1253 472 -1259 7 -3 15 -3 19 0 8 8 -448
1226 -468 1250 -11 14 -18 17 -23 9z"/>
<path stroke-width="1" d="M11152 3413 c-59 -152 -430 -1148 -437 -1171 -6 -20 -4 -23 12 -20
14 2 68 136 250 618 127 338 231 621 230 629 -5 38 -28 15 -55 -56z"/>
<path stroke-width="1" d="M16860 3462 c0 -24 -5 -29 -44 -40 -106 -28 -178 -123 -178 -235 0
-112 63 -201 166 -233 l56 -18 0 -183 c0 -179 0 -183 -21 -183 -34 0 -86 30
-119 66 -35 40 -40 74 -10 74 26 0 54 43 45 70 -11 34 -51 55 -81 42 -49 -23
-52 -95 -7 -185 27 -55 91 -102 154 -112 35 -6 39 -10 39 -36 0 -24 4 -29 25
-29 21 0 25 5 25 29 0 26 5 30 45 40 27 7 62 27 87 49 147 133 103 396 -77
453 l-50 16 -3 167 c-2 162 -2 166 18 166 36 0 84 -26 118 -64 37 -42 40 -56
13 -56 -22 0 -51 -35 -51 -62 0 -25 36 -58 63 -58 87 0 70 167 -23 242 -20 15
-59 34 -88 40 -47 12 -52 15 -52 40 0 23 -4 28 -25 28 -21 0 -25 -5 -25 -28z
m0 -243 l0 -160 -22 7 c-32 9 -72 39 -102 75 -35 41 -36 111 -3 160 26 39 81
79 108 79 18 0 19 -11 19 -161z m98 -313 c36 -19 78 -65 91 -99 35 -92 -22
-210 -112 -232 l-27 -7 0 176 c0 116 4 176 10 176 6 0 23 -6 38 -14z"/>
<path stroke-width="1" d="M13045 3438 c-43 -24 -43 -34 -15 -354 26 -300 28 -314 45 -314 20 0
21 10 45 290 28 326 28 346 10 364 -21 21 -62 28 -85 14z"/>
<path stroke-width="1" d="M14055 3416 c-137 -44 -238 -147 -287 -294 -12 -37 -18 -85 -18 -147
0 -189 93 -345 250 -419 111 -52 280 -49 475 9 88 26 122 46 111 63 -11 18
-34 15 -137 -22 -299 -107 -515 -44 -621 181 -163 346 165 727 491 573 183
-87 275 -300 228 -527 -8 -35 -22 -72 -32 -83 -23 -25 -61 -26 -75 -1 -6 12
-10 93 -10 195 0 96 -3 181 -6 190 -4 10 -18 16 -37 16 -22 0 -43 12 -77 44
-121 113 -305 60 -376 -109 -10 -24 -16 -67 -16 -110 0 -76 16 -127 58 -182
82 -108 241 -128 330 -42 23 22 34 28 34 18 0 -42 95 -85 152 -69 64 19 83 55
97 184 17 152 -18 294 -99 396 -39 49 -124 106 -197 131 -65 22 -176 25 -238
5z m196 -219 c18 -12 44 -38 56 -56 21 -31 23 -45 23 -163 0 -146 -7 -170 -67
-215 -29 -22 -47 -28 -89 -28 -47 0 -57 4 -88 34 -99 96 -101 316 -4 408 18
17 40 33 48 36 36 13 89 6 121 -16z"/>
<path stroke-width="1" d="M8485 3386 c-89 -95 -104 -304 -24 -346 27 -15 77 -3 89 20 16 29 12
75 -8 93 -22 20 -73 22 -90 5 -9 -9 -12 -5 -12 18 0 52 28 127 65 173 37 47
41 56 25 66 -6 4 -26 -9 -45 -29z"/>
<path stroke-width="1" d="M15604 3408 c-5 -7 -34 -103 -65 -213 l-56 -200 -161 -3 c-135 -2
-162 -5 -162 -17 0 -13 25 -15 155 -15 85 0 155 -3 155 -6 0 -3 -12 -50 -27
-105 l-26 -99 -113 0 c-121 0 -144 -4 -144 -26 0 -11 24 -14 120 -14 70 0 120
-4 120 -10 0 -5 -22 -91 -50 -192 -54 -197 -57 -218 -36 -218 8 0 23 33 39 93
14 50 40 145 57 210 l32 117 134 0 c102 0 132 -3 129 -12 -12 -35 -105 -383
-105 -395 0 -7 6 -13 14 -13 16 0 19 10 87 257 l44 163 157 0 c104 0 159 4
164 11 13 22 -24 29 -165 29 l-143 0 6 23 c3 12 16 59 27 105 l21 82 129 0
c108 0 129 2 129 15 0 13 -20 15 -120 15 -89 0 -120 3 -120 13 0 6 23 96 51
199 31 111 49 194 45 205 -7 16 -9 17 -19 2 -7 -9 -36 -107 -66 -218 l-54
-201 -127 0 c-70 0 -129 2 -132 5 -2 3 20 95 50 205 39 142 52 204 45 211 -8
8 -13 7 -19 -3z m166 -461 c0 -10 -27 -117 -46 -179 -5 -16 -20 -18 -135 -18
-144 0 -138 -4 -115 76 8 27 20 68 26 92 l11 42 129 0 c99 0 130 -3 130 -13z"/>
<path stroke-width="1" d="M11916 3375 c-41 -14 -106 -70 -106 -91 0 -25 21 -25 50 0 46 38 89
42 184 16 190 -53 213 -52 282 12 24 22 44 45 44 50 0 21 -32 18 -61 -6 -40
-34 -110 -35 -205 -3 -96 33 -142 38 -188 22z"/>
<path stroke-width="1" d="M774 3361 c-51 -23 -107 -78 -136 -134 -19 -35 -23 -58 -23 -132 0
-78 4 -97 27 -141 81 -154 273 -194 354 -75 l24 36 0 -55 c0 -71 -25 -174 -52
-218 -11 -19 -39 -47 -61 -63 -32 -23 -50 -29 -93 -29 -49 0 -104 15 -104 29
0 4 10 11 23 16 16 7 23 20 25 47 3 30 -1 40 -22 53 -55 36 -105 -8 -91 -81
21 -113 195 -146 323 -61 57 38 120 130 147 212 27 81 28 322 3 405 -24 76
-69 144 -119 177 -56 37 -162 44 -225 14z m175 -46 c47 -41 66 -103 66 -225 0
-92 -3 -111 -25 -154 -32 -63 -66 -89 -120 -89 -48 0 -86 24 -115 74 -17 29
-20 52 -20 169 0 149 8 175 65 224 43 36 106 36 149 1z"/>
<path stroke-width="1" d="M1748 3324 c-17 -37 -5 -50 110 -115 88 -50 102 -56 113 -42 11 13 0
28 -73 99 -95 93 -128 106 -150 58z"/>
<path stroke-width="1" d="M7667 3062 c-33 -37 -14 -104 33 -113 32 -7 68 11 78 38 10 30 0 72
-21 85 -22 14 -74 8 -90 -10z"/>
<path stroke-width="1" d="M3590 2975 c0 -13 50 -15 423 -13 275 2 421 6 420 13 -2 6 -154 11
-423 13 -370 2 -420 0 -420 -13z"/>
<path stroke-width="1" d="M2687 2843 c-4 -3 -7 -21 -7 -40 l0 -33 175 0 175 0 0 40 0 40 -168
0 c-93 0 -172 -3 -175 -7z"/>
<path stroke-width="1" d="M3601 2741 c-7 -5 -10 -14 -7 -20 9 -14 832 -16 841 -2 16 27 -46 31
-427 31 -216 0 -399 -4 -407 -9z"/>
<path stroke-width="1" d="M7666 2648 c-22 -31 -20 -74 5 -99 17 -17 29 -20 60 -15 21 3 39 3
39 -1 -1 -42 -34 -131 -64 -172 -39 -55 -44 -71 -22 -71 24 0 74 70 96 134 43
128 15 238 -62 244 -28 2 -40 -2 -52 -20z"/>
<path stroke-width="1" d="M9219 2649 c-28 -28 -22 -76 14 -103 23 -17 32 -19 57 -9 28 10 30
10 30 -11 0 -44 -31 -126 -65 -171 -38 -49 -43 -65 -21 -65 23 0 73 65 95 125
35 92 25 222 -19 245 -30 16 -69 11 -91 -11z"/>
<path stroke-width="1" d="M9991 2644 c-24 -30 -24 -34 -11 -68 26 -70 130 -50 130 25 0 65 -80
93 -119 43z"/>
<path stroke-width="1" d="M13027 2652 c-34 -38 -16 -101 33 -117 20 -6 59 9 72 29 14 21 8 73
-10 89 -25 22 -75 21 -95 -1z"/>
<path stroke-width="1" d="M760 1869 c-73 -29 -121 -112 -128 -222 -8 -133 37 -230 125 -269
122 -54 223 55 223 242 0 43 -4 90 -10 104 -11 31 -11 31 60 6 65 -23 159 -25
224 -6 l47 14 -18 -27 c-10 -15 -139 -208 -288 -429 -250 -374 -268 -403 -253
-419 15 -14 19 -14 33 -3 27 22 665 977 665 995 0 34 -31 27 -81 -20 -69 -64
-127 -88 -215 -88 -60 0 -81 5 -135 32 -35 17 -86 47 -113 66 -50 36 -88 43
-136 24z m135 -73 c35 -45 58 -145 50 -209 -15 -108 -67 -187 -124 -187 -71 0
-106 75 -106 225 0 86 4 107 25 150 14 28 36 55 49 62 33 15 75 -1 106 -41z"/>
<path stroke-width="1" d="M4934 1865 c-3 -8 -2 -61 3 -119 6 -70 5 -102 -2 -98 -5 3 -44 30
-85 59 -82 60 -113 65 -118 21 -3 -25 4 -31 95 -76 l98 -50 -98 -45 c-93 -44
-98 -48 -95 -74 5 -47 38 -41 124 21 42 31 79 56 83 56 4 0 3 -45 -2 -100 -11
-118 -7 -133 30 -128 l28 3 -3 114 c-3 93 -2 112 10 105 7 -4 43 -30 80 -57
77 -55 111 -60 116 -14 3 26 -2 30 -95 73 l-98 46 98 49 c91 46 98 52 95 77
-5 44 -36 39 -120 -21 -41 -30 -79 -56 -84 -60 -6 -3 -6 36 -1 99 5 58 6 111
3 119 -3 8 -17 15 -31 15 -14 0 -28 -7 -31 -15z"/>
<path stroke-width="1" d="M6065 1848 c-96 -83 -182 -248 -215 -409 -28 -131 -24 -319 9 -443
39 -149 136 -310 226 -374 54 -39 52 -7 -4 60 -104 126 -157 282 -168 494 -13
265 48 489 172 631 25 28 45 56 45 62 0 20 -29 11 -65 -21z"/>
<path stroke-width="1" d="M6690 1869 c0 -6 22 -35 48 -65 105 -117 159 -280 169 -502 12 -273
-41 -464 -174 -628 -51 -62 -48 -89 5 -50 89 65 182 221 224 374 30 106 32
372 4 477 -39 149 -114 283 -201 364 -43 40 -75 53 -75 30z"/>
<path stroke-width="100s" d="M10762 1861 c-29 -10 -64 -29 -78 -42 -50 -47 -54 -65 -54 -256 0
-150 -3 -184 -18 -213 -21 -42 -72 -78 -124 -86 -45 -8 -51 -31 -10 -39 67
-14 113 -45 132 -88 17 -36 20 -66 20 -223 0 -172 1 -183 23 -215 30 -44 88
-76 162 -87 99 -16 116 7 27 37 -110 38 -122 66 -122 296 0 187 -4 208 -52
252 -12 12 -36 27 -52 33 l-29 11 41 20 c81 40 86 57 92 279 5 161 9 201 23
228 18 32 72 65 130 77 15 3 27 12 27 20 0 21 -71 19 -138 -4z"/>
<path stroke-width="1" d="M11510 1867 c0 -10 11 -19 28 -22 66 -14 109 -43 131 -87 19 -40 21
-61 21 -225 0 -170 1 -182 23 -214 12 -19 41 -44 64 -55 l43 -22 -30 -12 c-36
-15 -88 -71 -95 -103 -2 -12 -6 -103 -7 -202 -3 -154 -6 -185 -21 -208 -23
-36 -72 -66 -119 -73 -36 -6 -52 -28 -26 -36 23 -8 129 12 168 32 22 11 51 37
65 57 25 37 25 41 25 223 0 160 2 190 18 220 19 36 79 74 135 85 40 8 30 24
-31 44 -54 19 -85 41 -105 76 -8 12 -14 96 -17 220 -6 230 -8 236 -97 281 -65
33 -173 45 -173 21z"/>
<path stroke-width="1" d="M12631 1866 c-8 -9 -10 -183 -9 -632 3 -597 4 -619 22 -622 10 -2 22
2 27 10 10 15 12 1217 3 1242 -8 20 -28 21 -43 2z"/>
<path stroke-width="1" d="M3554 1821 c-110 -51 -138 -183 -82 -378 l21 -72 -87 -91 c-106 -112
-120 -136 -114 -207 9 -102 99 -174 221 -175 78 0 126 14 191 57 l50 33 31
-24 c82 -62 205 -85 272 -51 41 22 80 69 93 115 13 49 13 52 -8 52 -13 0 -22
-12 -31 -39 -6 -22 -25 -51 -41 -65 -63 -53 -139 -42 -217 30 l-45 42 35 46
c20 25 65 95 101 155 75 124 119 168 176 177 32 5 40 11 40 28 0 21 -3 21
-140 18 -131 -3 -140 -4 -140 -23 0 -10 7 -19 15 -19 26 0 65 -23 71 -42 7
-22 -97 -203 -153 -267 -31 -35 -32 -36 -47 -16 -43 54 -148 216 -166 258
l-21 47 51 62 c93 115 116 188 89 279 -24 77 -90 105 -165 70z m113 -47 c23
-36 29 -121 10 -164 -16 -39 -96 -150 -108 -150 -15 0 -41 151 -37 215 3 55 8
69 33 95 37 39 78 40 102 4z m-107 -533 c29 -49 76 -120 106 -157 l53 -67 -25
-20 c-34 -26 -117 -57 -155 -57 -45 0 -82 23 -107 68 -49 89 -38 200 30 277
22 25 41 45 42 45 2 0 27 -40 56 -89z"/>
<path stroke-width="1" d="M17467 1810 c-124 -39 -179 -220 -67 -220 63 0 84 76 30 108 l-30 19
28 25 c48 45 112 58 185 37 49 -13 77 -57 77 -119 0 -49 -13 -77 -77 -170 -45
-65 -67 -130 -78 -227 -8 -69 -1 -103 21 -103 10 0 14 14 14 53 0 107 54 214
144 287 24 19 54 52 66 73 43 75 8 181 -73 224 -37 19 -194 28 -240 13z"/>
<path stroke-width="1" d="M14104 1785 c-89 -89 -112 -303 -39 -351 30 -19 81 -11 95 16 16 29
12 75 -8 93 -22 20 -73 22 -90 5 -9 -9 -12 -6 -12 13 0 46 29 124 65 174 35
51 44 75 25 75 -6 0 -22 -11 -36 -25z"/>
<path stroke-width="1" d="M14366 1777 c-119 -127 -90 -412 36 -346 30 16 38 28 38 62 0 52 -74
89 -108 55 -9 -9 -12 -4 -12 24 0 51 24 112 66 170 27 36 34 52 26 60 -8 8
-21 2 -46 -25z"/>
<path stroke-width="1" d="M2310 1639 c-63 -49 -116 -95 -118 -103 -7 -32 22 -23 115 37 54 35
103 66 109 70 6 3 59 -25 119 -64 84 -55 110 -67 121 -58 8 6 11 15 8 20 -4 8
-154 124 -224 175 -12 9 -37 -5 -130 -77z"/>
<path stroke-width="1" d="M9427 1653 c-4 -3 -7 -93 -7 -200 l0 -193 -194 0 c-181 0 -224 -6
-202 -27 3 -3 94 -5 201 -4 l195 2 0 -193 c0 -187 6 -228 29 -214 7 5 11 71
11 207 l0 200 188 -1 c103 -1 193 -1 200 -1 6 1 12 8 12 16 0 13 -29 15 -200
15 l-200 0 0 200 c0 160 -3 200 -13 200 -8 0 -17 -3 -20 -7z"/>
<path stroke-width="1" d="M15357 1430 c-203 -93 -371 -171 -374 -174 -3 -3 -3 -11 0 -19 5 -14
725 -347 751 -347 23 0 20 17 -6 34 -13 7 -169 80 -348 161 -179 82 -328 151
-332 154 -4 3 152 78 345 167 236 108 353 166 355 177 2 9 -2 17 -10 16 -7 0
-179 -76 -381 -169z"/>
<path stroke-width="1" d="M16392 1584 c2 -11 123 -72 355 -178 194 -89 349 -164 345 -167 -4
-3 -163 -78 -354 -165 -309 -141 -387 -184 -332 -184 14 0 591 258 707 317 30
15 47 30 45 39 -3 14 -732 354 -758 354 -6 0 -10 -7 -8 -16z"/>
<path stroke-width="1" d="M13410 1472 c-67 -21 -67 -111 1 -134 8 -3 29 0 46 7 34 15 48 50 34
88 -10 26 -55 47 -81 39z"/>
<path stroke-width="1" d="M1310 1348 c-110 -56 -155 -249 -89 -380 28 -56 46 -76 91 -99 125
-64 233 51 232 246 -1 115 -43 203 -116 241 -38 20 -67 18 -118 -8z m135 -51
c85 -85 85 -289 0 -374 -61 -61 -131 -33 -156 61 -14 52 -14 200 0 253 25 93
96 120 156 60z"/>
<path stroke-width="1" d="M13380 1040 c-39 -39 -20 -102 35 -116 46 -11 92 35 81 81 -14 55
-77 74 -116 35z"/>
<path stroke-width="1" d="M17501 1034 c-24 -30 -24 -34 -11 -68 27 -72 130 -50 130 28 0 65
-79 91 -119 40z"/>
<path stroke-width="100" d="M7643 664 c-3 -8 -1 -20 4 -25 5 -5 160 -8 389 -7 371 3 379 3 379
23 0 20 -8 20 -383 23 -341 2 -383 1 -389 -14z"/>
</g>
</svg>
